<svg xmlns="http://www.w3.org/2000/svg"  width="100%" height="100%" viewBox="0 0 1000 600"><rect width="1000" height="600" x="0" y="0" fill="#ffff"/><g>

<rect width="333.3333333333333" height="333.3333333333333" rx="13.333333333333334" ry="13.333333333333334" y="194.59715638875963" fill="#aaddff" transform="matrix(0.7251635040693664,0,0,0.7251635040693662,0,38.0246754384206)" x="172.37496948242188"/>
<path d="M375.0264769573742 436.2638178021014L303.0567793477178 436.2638178021014L303.0567793477178 286.2638164682911L372.72461213504107 286.2638164682911L372.72461213504107 295.063350346071L313.138364518949 295.063350346071L313.138364518949 350.2498310232731L367.04279390269977 350.2498310232731L367.04279390269977 358.8454021952767L313.138364518949 358.8454021952767L313.138364518949 427.4642839243215L375.0264769573742 427.4642839243215L375.0264769573742 436.2638178021014Z " fill="#0000ff" transform="matrix(0.7251635040693664,0,0,0.7251635040693662,0,38.0246754384206)"/>
<!-- <path d="M310.83649989492557 436.2638178021014L300.75491472369436 436.2638178021014L300.75491472369436 286.2638164682911L377.328341978017 286.2638164682911L377.328341978017 295.063350346071L310.83649989492557 295.063350346071L310.83649989492557 350.2498310232731L371.67566127507234 350.2498310232731L371.67566127507234 358.8454021952767L310.83649989492557 358.8454021952767L310.83649989492557 436.2638178021014Z " fill="#0000ff" transform="matrix(0.7251635040693664,0,0,0.7251635040693662,0,38.0246754384206)"/> -->

<path d="M613.6925864798957 387.8781256237507L613.6925864798957 387.8781256237507L613.6925864798957 288.1399088271221L621.2405792645924 288.1399088271221L621.2405792645924 382.86067377265164Q621.2405792645924 403.8903415311709 612.449131021145 416.4557861669667L612.449131021145 416.4557861669667Q608.0424993953973 422.91302854925055 603.4831627133117 427.2324001428054Q598.9456410392743 431.5517717363601 592.3356936006526 436.2638134747835L592.3356936006526 436.2638134747835L589.0416273853658 431.3772516719741Q613.6925864798957 413.31442500801774 613.6925864798957 387.8781256237507ZM841.3758254795484 385.52210475453893Q825.7344647089485 368.7245485573815 825.7344647089485 344.2044795111412Q825.7344647089485 319.70622547294914 841.3758254795484 302.97411429993645Q856.9953712421001 286.263818134972 880.882805054941 286.263818134972Q904.7484238597335 286.263818134972 920.4552296544782 302.97411429993645Q936.1620354492229 319.70622547294914 936.1620354492229 344.2044795111412Q936.1620354492229 368.7245485573815 920.4552296544782 385.52210475453893Q904.7484238597335 402.31966095169645 880.882805054941 402.31966095169645Q856.9953712421001 402.31966095169645 841.3758254795484 385.52210475453893ZM846.9386525318539 307.8606761027459Q833.9150927270448 322.54217651922255 833.9150927270448 344.2044795111412Q833.9150927270448 365.8885975111081 847.0259125640468 380.6573579597778Q860.1367324010491 395.4261184084474 880.9482500790857 395.4261184084474Q901.7597677571225 395.4261184084474 914.8705875941246 380.6573579597778Q928.003222439175 365.8885975111081 928.003222439175 344.2044795111412Q928.003222439175 322.54217651922255 914.8705875941246 307.8606761027459Q901.7597677571225 293.15736067822104 880.882805054941 293.15736067822104Q859.9840273447112 293.15736067822104 846.9386525318539 307.8606761027459ZM1140.6559208935792 400.1381601468708L1140.6559208935792 288.44531893979763Q1152.9159554166993 287.50727359372263 1165.7213651410257 287.50727359372263Q1178.5267748653523 287.50727359372263 1187.863598310006 293.7899959116205Q1197.2004217546598 300.0727182295184 1197.2004217546598 312.0055276319146L1197.2004217546598 312.0055276319146Q1197.2004217546598 320.9714959397481 1192.2702299357538 328.6721937807826Q1187.3182231087997 336.35107661376884 1180.4028655575023 340.27777806245507L1180.4028655575023 340.27777806245507Q1191.5503346701614 343.74636434212783 1199.0983274548582 352.23240247289954Q1206.6245052315066 360.69662559562306 1206.6245052315066 371.233274482931L1206.6245052315066 371.233274482931Q1206.6245052315066 386.0020349316006 1197.2876817868528 393.6809177645869Q1187.9508583421991 401.38161560562145 1171.6768623381997 401.38161560562145Q1155.4246813422487 401.38161560562145 1140.6559208935792 400.1381601468708L1140.6559208935792 400.1381601468708ZM1172.5494626601298 394.6407781187102Q1184.024156893513 394.6407781187102 1191.3976296138235 388.2707957686193Q1198.7711023341344 381.90081341852834 1198.7711023341344 372.0186147726682Q1198.7711023341344 362.1146011187597 1191.6375947023544 354.89383345478683Q1184.4822720625261 347.67306579081395 1172.0695324830685 344.98981980087837L1172.0695324830685 344.98981980087837Q1166.2667403422322 343.74636434212783 1158.6533025333906 343.74636434212783Q1151.0398647245493 343.74636434212783 1148.2039136782757 343.74636434212783L1148.2039136782757 343.74636434212783L1148.2039136782757 393.8554378289729Q1155.119271229573 394.6407781187102 1172.5494626601298 394.6407781187102L1172.5494626601298 394.6407781187102ZM1189.6742439780114 311.78737755143203Q1189.6742439780114 303.21407938846727 1182.5189213381832 298.5020376500439Q1175.3854137064034 293.7899959116205 1166.506705430763 293.7899959116205Q1157.6279971551226 293.7899959116205 1148.2039136782757 294.42263114501986L1148.2039136782757 294.42263114501986L1148.2039136782757 337.31093696789213Q1150.254524434812 337.31093696789213 1155.9046115193105 337.31093696789213Q1161.5546986038087 337.31093696789213 1172.5494626601298 338.24898231396713L1172.5494626601298 338.24898231396713Q1179.6175252677651 334.47498592161884 1184.6349771188643 327.40692331398367Q1189.6742439780114 320.3388607063486 1189.6742439780114 311.78737755143203Z " fill="#0000ff" transform="matrix(0.7251635040693664,0,0,0.7251635040693662,0,38.0246754384206)"/>
</g></svg>